<svg width="157" height="157" viewBox="0 0 157 157" fill="none" xmlns="http://www.w3.org/2000/svg">
<path d="M73.5 93L68.9038 97.5962L73.5 102.192L78.0962 97.5962L73.5 93ZM130.5 78.5C130.5 107.219 107.219 130.5 78.5 130.5V143.5C114.399 143.5 143.5 114.399 143.5 78.5H130.5ZM78.5 130.5C49.7812 130.5 26.5 107.219 26.5 78.5H13.5C13.5 114.399 42.6015 143.5 78.5 143.5V130.5ZM26.5 78.5C26.5 49.7812 49.7812 26.5 78.5 26.5V13.5C42.6015 13.5 13.5 42.6015 13.5 78.5H26.5ZM78.5 26.5C107.219 26.5 130.5 49.7812 130.5 78.5H143.5C143.5 42.6015 114.399 13.5 78.5 13.5V26.5ZM48.4038 77.0962L68.9038 97.5962L78.0962 88.4038L57.5962 67.9038L48.4038 77.0962ZM78.0962 97.5962L108.096 67.5962L98.9038 58.4038L68.9038 88.4038L78.0962 97.5962Z" fill="url(#paint0_linear_340_5929)"/>
<defs>
<linearGradient id="paint0_linear_340_5929" x1="149.5" y1="55.5" x2="25" y2="100" gradientUnits="userSpaceOnUse">
<stop stop-color="#DC1FFF"/>
<stop offset="1" stop-color="#0EF1A8"/>
</linearGradient>
</defs>
</svg>
